<svg width="599" height="612" viewBox="0 0 599 612" fill="none" xmlns="http://www.w3.org/2000/svg">
<path d="M483.8 554.631C483.8 554.802 400.611 554.949 298.026 554.949C195.442 554.949 112.217 554.802 112.217 554.631C112.217 554.46 195.394 554.313 298.026 554.313C400.659 554.313 483.8 554.472 483.8 554.631Z" fill="#263238"/>
<path d="M402.744 404.789C384.235 391.582 380.042 367.065 380.772 345.021C380.892 341.349 380.497 337.457 382.21 334.238C383.923 331.019 387.924 328.803 391.147 330.345C393.819 331.631 394.981 334.813 396.478 337.445C398.476 340.95 401.404 343.805 404.924 345.682C407.212 346.906 410.051 347.64 412.316 346.368C415.43 344.617 415.79 340.248 415.766 336.576C415.766 329.746 415.726 322.924 415.646 316.11C415.431 312.452 415.795 308.781 416.724 305.241C417.838 301.765 420.318 298.546 423.709 297.567C427.099 296.587 431.328 298.607 432.095 302.181C432.227 303.695 432.263 305.216 432.202 306.734C432.298 308.264 432.993 309.941 434.395 310.406C435.796 310.871 437.258 309.807 438.336 308.729C442.026 305.057 444.542 300.272 446.878 295.547C449.214 290.822 451.502 285.963 454.857 281.936C458.211 277.909 462.847 274.715 468.035 274.409C473.222 274.103 478.625 277.358 479.919 282.499C481.213 287.64 478.278 292.891 475.127 297.065C470.372 303.26 464.768 308.723 458.487 313.283C457.26 313.967 456.282 315.035 455.695 316.331C454.917 318.779 457.181 321.227 459.541 321.998C462.212 322.903 465.112 322.622 467.927 322.965C470.742 323.307 473.737 324.556 474.803 327.249C476.265 330.994 473.198 334.911 470.191 337.481C464.153 342.622 457.297 346.667 449.921 349.44C447.285 350.419 444.518 351.288 442.385 353.173C440.253 355.058 438.983 358.35 440.265 360.933C441.547 363.516 444.841 364.336 447.609 363.81C450.376 363.283 452.832 361.765 455.468 360.75C460.391 358.852 466.741 359.195 469.844 363.54C470.805 365.037 471.413 366.741 471.621 368.519C471.829 370.296 471.631 372.099 471.042 373.785C469.843 377.141 467.997 380.216 465.615 382.83C457.768 392.409 447.573 399.686 436.072 403.92C424.655 407.959 414.077 409.061 402.732 404.814" fill="#0E20C5"/>
<path d="M474.648 277.432C474.648 277.432 474.54 277.554 474.3 277.775L473.234 278.741C472.3 279.598 470.922 280.847 469.185 282.499C464.26 287.171 459.686 292.216 455.504 297.591C452.832 300.982 450.065 304.825 447.118 308.999C444.171 313.173 441.128 317.677 438.109 322.463C434.89 327.51 431.943 332.732 429.279 338.106C427.89 340.908 426.668 343.834 425.41 346.82L421.696 355.939C416.801 367.425 412.537 379.182 408.925 391.154C406.016 400.949 404.011 411.001 402.935 421.178C402.239 428.047 402.126 434.964 402.6 441.852C402.792 444.3 402.971 446.172 403.139 447.445C403.211 448.057 403.259 448.547 403.307 448.902V449.404C403.255 449.245 403.219 449.081 403.199 448.914C403.139 448.559 403.067 448.082 402.971 447.47C402.756 446.246 402.528 444.312 402.312 441.864C401.734 434.963 401.775 428.023 402.432 421.129C403.441 410.909 405.402 400.81 408.29 390.97C411.872 378.964 416.124 367.178 421.025 355.67L424.835 346.588C426.093 343.614 427.327 340.664 428.728 337.848C431.41 332.458 434.382 327.224 437.629 322.169C440.696 317.273 443.787 312.842 446.698 308.705C449.609 304.568 452.425 300.7 455.084 297.322C459.31 291.961 463.944 286.952 468.945 282.34C470.718 280.712 472.132 279.488 473.09 278.668L474.204 277.75C474.341 277.629 474.49 277.522 474.648 277.432V277.432Z" fill="#263238"/>
<path d="M428.884 337.824C428.715 337.32 428.599 336.799 428.537 336.269C428.345 335.254 428.129 333.821 427.878 331.961C427.363 328.289 426.835 323.258 426.272 317.689C425.709 312.12 425.074 307.077 424.547 303.442C424.272 301.63 424.032 300.174 423.864 299.158C423.734 298.638 423.665 298.103 423.661 297.567C423.867 298.057 424.016 298.571 424.104 299.097C424.368 300.1 424.667 301.545 425.003 303.368C425.685 307.04 426.356 312.034 426.919 317.616C427.482 323.197 427.962 328.093 428.333 331.9C428.513 333.613 428.668 335.07 428.788 336.233C428.881 336.757 428.913 337.292 428.884 337.824V337.824Z" fill="#263238"/>
<path d="M474.983 329.036C474.4 329.165 473.806 329.239 473.21 329.256C472.012 329.366 470.311 329.513 468.202 329.758C463.985 330.223 458.187 331.08 451.826 332.304C445.464 333.528 439.75 334.911 435.641 335.976C433.592 336.514 431.939 337.004 430.849 337.334C430.267 337.546 429.664 337.693 429.052 337.775C429.605 337.491 430.183 337.257 430.777 337.077C431.903 336.673 433.532 336.11 435.569 335.511C439.654 334.287 445.368 332.83 451.754 331.582C457.163 330.525 462.621 329.749 468.107 329.256C470.227 329.072 471.94 328.999 473.138 328.974C473.754 328.932 474.372 328.952 474.983 329.036Z" fill="#263238"/>
<path d="M408.877 390.113C408.75 389.936 408.645 389.743 408.566 389.538L407.775 387.837C407.092 386.356 406.17 384.165 405.068 381.484C402.84 376.098 400 368.559 396.981 360.186C393.962 351.814 391.183 344.274 389.074 338.828C388.044 336.184 387.194 334.017 386.559 332.402L385.888 330.651C385.795 330.449 385.73 330.235 385.696 330.015C385.824 330.192 385.929 330.385 386.008 330.59L386.798 332.291C387.469 333.773 388.404 335.963 389.506 338.644C391.734 344.03 394.573 351.569 397.592 359.942C400.611 368.314 403.391 375.854 405.499 381.3C406.529 383.944 407.38 386.111 408.003 387.726C408.278 388.424 408.506 388.95 408.686 389.477C408.779 389.679 408.843 389.893 408.877 390.113V390.113Z" fill="#263238"/>
<path d="M470.071 369.954C469.879 370.066 469.674 370.153 469.46 370.211L467.687 370.823L461.134 372.99C455.599 374.826 447.956 377.445 439.57 380.334C431.184 383.222 423.505 385.793 417.934 387.506C415.155 388.375 412.891 389.036 411.321 389.477L409.512 389.954C409.302 390.022 409.085 390.068 408.865 390.089C409.057 389.976 409.263 389.89 409.476 389.832L411.249 389.22L417.803 387.053C423.337 385.217 430.981 382.598 439.367 379.709C447.753 376.821 455.42 374.25 460.99 372.537C463.782 371.668 466.034 371.007 467.615 370.566L469.424 370.089C469.635 370.02 469.852 369.975 470.071 369.954V369.954Z" fill="#263238"/>
<path d="M445.105 73.0483L438.935 75.3004L436.288 67.0629C431.424 51.8731 415.922 43.8069 401.677 48.9355C387.433 54.064 379.85 70.7227 384.714 85.9125L387.361 94.15L381.168 96.4144C378.806 97.3504 376.888 99.1802 375.813 101.524C374.737 103.867 374.587 106.544 375.393 108.997L392.561 162.596C392.917 163.811 393.509 164.94 394.3 165.916C395.092 166.892 396.068 167.696 397.17 168.28C398.272 168.863 399.477 169.214 400.715 169.312C401.952 169.411 403.196 169.254 404.373 168.851L468.31 145.485C470.703 144.55 472.648 142.704 473.736 140.335C474.824 137.965 474.971 135.257 474.144 132.779L456.965 79.1805C456.599 77.9693 455.999 76.8457 455.199 75.8769C454.399 74.9081 453.416 74.1138 452.309 73.5415C451.202 72.9692 449.994 72.6305 448.756 72.5458C447.518 72.461 446.277 72.6319 445.105 73.0483V73.0483ZM396.37 81.6163C395.059 77.6667 395.294 73.3518 397.027 69.5756C398.76 65.7994 401.856 62.8549 405.667 61.3591C407.548 60.7013 409.54 60.4376 411.524 60.5835C413.507 60.7295 415.442 61.2822 417.212 62.2086C418.982 63.135 420.551 64.4162 421.825 65.9758C423.1 67.5353 424.054 69.3412 424.631 71.2857L427.267 79.5232L399.006 89.8538L396.37 81.6163ZM432.31 129.181L436.695 142.865C436.775 143.14 436.749 143.435 436.622 143.69C436.495 143.946 436.277 144.141 436.012 144.236L429.866 146.476C429.622 146.545 429.36 146.515 429.137 146.392C428.914 146.269 428.746 146.062 428.668 145.815L424.248 132.192C421.81 132.056 419.471 131.163 417.544 129.632C415.617 128.1 414.194 126.004 413.466 123.624C412.424 120.477 412.614 117.04 413.996 114.033C415.378 111.026 417.846 108.682 420.881 107.492C422.38 106.968 423.967 106.759 425.547 106.875C427.126 106.992 428.667 107.432 430.077 108.17C431.486 108.908 432.736 109.928 433.752 111.17C434.768 112.412 435.528 113.85 435.988 115.399C436.759 117.817 436.823 120.412 436.171 122.867C435.52 125.321 434.183 127.528 432.322 129.218L432.31 129.181Z" fill="#0E20C5"/>
<path d="M438.66 75.1535C438.66 75.3249 427.219 79.719 412.986 84.9455C398.754 90.172 387.146 94.3703 387.086 94.2479C387.026 94.1255 398.527 89.6946 412.771 84.4559C427.015 79.2172 438.6 74.9944 438.66 75.1535Z" fill="#263238"/>
<path d="M452.245 77.4058C452.298 77.512 452.342 77.6225 452.377 77.7362C452.473 77.981 452.58 78.2993 452.724 78.691C453.036 79.5845 453.467 80.8207 454.006 82.363L458.606 96.0473C460.523 101.849 462.811 108.728 465.351 116.366C466.549 120.197 467.963 124.187 469.281 128.385C469.986 130.549 470.291 132.828 470.179 135.105C470.077 136.29 469.748 137.442 469.209 138.496C468.633 139.546 467.864 140.473 466.944 141.225C465.094 142.605 463.039 143.676 460.859 144.395L454.689 146.66L443.008 150.931L423.229 158.129L409.872 162.927L406.278 164.151L405.319 164.469C405.217 164.515 405.108 164.544 404.996 164.555C404.996 164.555 405.092 164.555 405.295 164.408L406.23 164.028L409.824 162.645L423.11 157.651L442.853 150.307L454.509 145.999L460.679 143.722C462.798 143.032 464.792 141.994 466.585 140.65C467.441 139.952 468.157 139.091 468.694 138.116C469.201 137.142 469.507 136.071 469.592 134.97C469.702 132.776 469.41 130.58 468.729 128.496C467.436 124.334 466.07 120.307 464.836 116.476C462.344 108.826 460.044 101.922 458.223 96.1207C456.402 90.319 454.869 85.6555 453.814 82.3752C453.311 80.7718 452.928 79.5233 452.616 78.6175L452.329 77.6383C452.293 77.5641 452.265 77.4862 452.245 77.4058V77.4058Z" fill="#263238"/>
<path d="M418.509 60.5268C418.509 60.5268 417.874 60.2085 416.7 59.7189C415.027 59.062 413.257 58.6978 411.465 58.6418C408.809 58.5488 406.166 59.0588 403.726 60.1351C400.759 61.4753 398.222 63.6432 396.406 66.3897C394.578 69.1285 393.597 72.365 393.591 75.6799C393.616 78.3968 394.019 81.0963 394.789 83.6971C395.412 85.9248 396.059 87.6996 396.49 88.9358C396.744 89.5637 396.953 90.2102 397.113 90.8697C396.773 90.2826 396.488 89.6638 396.262 89.0215C395.771 87.7975 395.064 86.0594 394.37 83.8195C393.517 81.1914 393.052 78.448 392.992 75.6799C392.96 72.2397 393.964 68.8727 395.867 66.0348C397.746 63.1879 400.387 60.953 403.474 59.5965C405.99 58.5143 408.716 58.0369 411.441 58.2012C413.272 58.2965 415.07 58.732 416.748 59.4864C417.197 59.6978 417.629 59.9433 418.042 60.2208C418.212 60.2973 418.37 60.4005 418.509 60.5268V60.5268Z" fill="#263238"/>
<path d="M419.06 108.422C419.252 108.304 419.452 108.201 419.659 108.116C420.259 107.839 420.88 107.614 421.516 107.443C422.526 107.138 423.568 106.957 424.619 106.904C426.049 106.826 427.48 107.046 428.824 107.553C431.891 108.654 434.706 111.849 436.096 116.121C436.762 118.413 436.762 120.854 436.096 123.147C435.357 125.635 434.032 127.9 432.238 129.744L432.31 129.414C433.904 133.881 435.641 138.728 437.438 143.783L437.546 144.089L437.246 144.199L434.503 145.13L428.513 147.174L428.213 147.272L428.117 146.966C426.476 141.898 424.679 137.174 423.325 132.535L423.589 132.743C421.247 132.544 419.014 131.646 417.168 130.16C415.497 128.846 414.128 127.175 413.154 125.264C412.276 123.57 411.839 121.673 411.884 119.756C411.94 117.797 412.419 115.875 413.286 114.127C414.154 112.379 415.39 110.849 416.904 109.646C417.527 109.129 418.227 108.716 418.977 108.422C418.3 108.832 417.644 109.277 417.012 109.756C415.348 111.194 414.074 113.044 413.31 115.129C412.655 116.702 412.348 118.403 412.412 120.111C412.476 121.819 412.91 123.491 413.681 125.007C414.638 126.845 415.975 128.449 417.599 129.707C419.36 131.119 421.489 131.971 423.721 132.155H423.924L423.984 132.339C425.302 136.892 427.111 141.654 428.776 146.745L428.381 146.55L434.371 144.505L437.102 143.563L436.911 143.979C435.126 138.924 433.4 134.065 431.819 129.597V129.414L431.963 129.267C433.704 127.499 435.003 125.328 435.749 122.939C436.384 120.746 436.384 118.412 435.749 116.219C434.443 112.106 431.747 108.985 428.824 107.883C427.53 107.374 426.149 107.136 424.763 107.186C423.728 107.21 422.699 107.354 421.696 107.614C419.911 108.067 419.072 108.483 419.06 108.422Z" fill="#263238"/>
<path d="M382.03 461.84L262.362 461.277C255.451 461.238 248.838 458.398 243.975 453.381C239.112 448.365 236.397 441.581 236.425 434.52L237.695 128.018C237.709 124.52 238.398 121.059 239.722 117.833C241.046 114.607 242.979 111.679 245.412 109.217C247.844 106.755 250.727 104.807 253.896 103.484C257.066 102.16 260.46 101.489 263.883 101.506L383.54 102.069C390.45 102.105 397.065 104.942 401.93 109.956C406.795 114.971 409.514 121.753 409.488 128.814L408.218 435.303C408.204 438.803 407.516 442.265 406.192 445.492C404.868 448.72 402.935 451.649 400.503 454.113C398.072 456.577 395.189 458.528 392.019 459.854C388.849 461.179 385.455 461.854 382.03 461.84V461.84Z" fill="#455A64"/>
<path d="M383.36 112.608H360.167C359.41 112.622 358.663 112.789 357.969 113.098C357.276 113.407 356.648 113.853 356.123 114.41C355.598 114.967 355.186 115.624 354.909 116.344C354.633 117.064 354.498 117.832 354.512 118.606V122.902C354.526 123.674 354.391 124.442 354.115 125.162C353.838 125.881 353.425 126.537 352.9 127.093C352.375 127.649 351.747 128.094 351.054 128.402C350.36 128.709 349.614 128.874 348.858 128.887L303.645 128.679C302.115 128.637 300.665 127.977 299.611 126.844C298.558 125.71 297.988 124.195 298.026 122.633V118.336C298.065 116.776 297.497 115.263 296.446 114.13C295.395 112.996 293.947 112.335 292.42 112.29H284.261L263.955 112.192C259.125 112.162 254.481 114.09 251.039 117.551C247.597 121.013 245.637 125.727 245.59 130.662L244.392 429.832C244.381 432.28 244.842 434.706 245.749 436.972C246.655 439.239 247.99 441.3 249.677 443.039C251.363 444.778 253.368 446.16 255.578 447.108C257.787 448.055 260.158 448.548 262.554 448.559L381.97 449.122C384.368 449.134 386.744 448.662 388.964 447.735C391.183 446.808 393.202 445.444 394.905 443.719C396.608 441.995 397.962 439.945 398.89 437.686C399.817 435.427 400.301 433.004 400.312 430.554L401.51 131.384C401.538 126.436 399.643 121.678 396.239 118.157C392.836 114.636 388.203 112.64 383.36 112.608V112.608Z" fill="white"/>
<path d="M367.295 409.208L278.499 408.816C277.577 408.816 276.834 407.788 276.846 406.539L276.942 382.806C276.942 381.582 277.696 380.529 278.619 380.529L367.415 380.946C367.926 381.036 368.383 381.324 368.691 381.751C368.999 382.177 369.134 382.709 369.068 383.234L368.984 406.943C368.984 408.204 368.217 409.22 367.295 409.208Z" fill="#0E20C5"/>
<path d="M307.038 398.432V392.518H310.607V393.153H307.754V395.152H310.422V395.787H307.754V397.797H310.653V398.432H307.038ZM316.587 392.518V398.432H315.894L312.671 393.789H312.614V398.432H311.897V392.518H312.59L315.824 397.173H315.882V392.518H316.587ZM317.696 393.153V392.518H322.132V393.153H320.272V398.432H319.556V393.153H317.696ZM323.237 398.432V392.518H325.235C325.697 392.518 326.076 392.597 326.373 392.755C326.669 392.911 326.889 393.126 327.031 393.399C327.173 393.672 327.245 393.983 327.245 394.332C327.245 394.68 327.173 394.989 327.031 395.258C326.889 395.528 326.67 395.74 326.376 395.894C326.081 396.046 325.705 396.122 325.246 396.122H323.629V395.475H325.223C325.539 395.475 325.793 395.429 325.986 395.336C326.18 395.244 326.321 395.113 326.407 394.944C326.496 394.772 326.54 394.568 326.54 394.332C326.54 394.095 326.496 393.888 326.407 393.711C326.319 393.534 326.177 393.397 325.983 393.301C325.788 393.203 325.531 393.153 325.212 393.153H323.953V398.432H323.237ZM326.02 395.775L327.476 398.432H326.644L325.212 395.775H326.02ZM328.68 398.432H327.93L330.101 392.518H330.84L333.012 398.432H332.261L330.494 393.454H330.448L328.68 398.432ZM328.958 396.122H331.984V396.757H328.958V396.122ZM333.933 398.432V392.518H335.931C336.393 392.518 336.772 392.597 337.069 392.755C337.365 392.911 337.585 393.126 337.727 393.399C337.87 393.672 337.941 393.983 337.941 394.332C337.941 394.68 337.87 394.989 337.727 395.258C337.585 395.528 337.366 395.74 337.072 395.894C336.777 396.046 336.401 396.122 335.943 396.122H334.326V395.475H335.92C336.235 395.475 336.489 395.429 336.682 395.336C336.876 395.244 337.017 395.113 337.103 394.944C337.192 394.772 337.236 394.568 337.236 394.332C337.236 394.095 337.192 393.888 337.103 393.711C337.015 393.534 336.873 393.397 336.679 393.301C336.485 393.203 336.228 393.153 335.908 393.153H334.649V398.432H333.933ZM336.716 395.775L338.172 398.432H337.34L335.908 395.775H336.716Z" fill="#E8E8E3"/>
<path d="M296.21 200.553L265.398 200.41L265.373 206.187L296.185 206.33L296.21 200.553Z" fill="#0E20C5"/>
<path opacity="0.1" d="M296.21 200.553L265.398 200.41L265.373 206.187L296.185 206.33L296.21 200.553Z" fill="black"/>
<path d="M386.535 236.024C386.777 235.999 387.014 235.941 387.242 235.853C387.573 235.72 387.861 235.495 388.073 235.203C388.285 234.91 388.412 234.563 388.44 234.2C388.44 232.254 388.44 229.414 388.44 225.767C388.44 223.943 388.44 221.899 388.44 219.647C388.44 219.096 388.44 218.521 388.44 217.945C388.518 217.387 388.399 216.819 388.104 216.342C387.939 216.113 387.725 215.927 387.477 215.797C387.23 215.668 386.956 215.599 386.678 215.595H384.81H367.499L267.298 215.216C267.041 215.212 266.788 215.27 266.558 215.388C266.329 215.505 266.13 215.677 265.98 215.889C265.691 216.368 265.58 216.937 265.668 217.493C265.668 218.717 265.668 219.941 265.668 221.165C265.668 223.613 265.668 226.061 265.668 228.509C265.668 229.733 265.668 230.957 265.668 232.181C265.619 232.751 265.619 233.324 265.668 233.894C265.731 234.139 265.848 234.365 266.01 234.556C266.172 234.747 266.375 234.897 266.603 234.996C266.839 235.092 267.092 235.138 267.346 235.13H273.444L300.051 235.277L345.096 235.559L375.465 235.804L383.719 235.902H385.864C386.355 235.902 386.595 235.902 386.595 235.902H385.864H383.719H375.465H345.096L300.051 235.755L273.444 235.645H267.346C267.01 235.658 266.675 235.6 266.363 235.473C266.048 235.336 265.767 235.126 265.543 234.861C265.319 234.596 265.157 234.282 265.069 233.943C265 233.622 264.976 233.292 264.998 232.964V232.058C264.998 230.834 264.998 229.61 264.998 228.386C264.998 225.938 264.998 223.49 264.998 221.042C264.998 219.818 264.998 218.594 264.998 217.37C264.975 217.044 264.975 216.717 264.998 216.391C265.042 216.031 265.179 215.689 265.393 215.4C265.6 215.104 265.873 214.864 266.19 214.7C266.507 214.536 266.859 214.453 267.214 214.457L367.415 215.02L384.726 215.143H386.595C386.924 215.143 387.248 215.224 387.54 215.38C387.832 215.535 388.083 215.76 388.272 216.036C388.61 216.568 388.746 217.208 388.655 217.835C388.655 218.411 388.655 218.986 388.655 219.537C388.655 221.764 388.655 223.808 388.655 225.657C388.655 229.329 388.571 232.144 388.547 234.102C388.518 234.479 388.384 234.839 388.161 235.14C387.938 235.442 387.636 235.672 387.289 235.804C387.063 235.947 386.801 236.023 386.535 236.024V236.024Z" fill="#E0E0E0"/>
<path d="M331.007 221.36H274.653V226.758H331.007V221.36Z" fill="#0E20C5"/>
<path opacity="0.2" d="M331.007 221.36H274.653V226.758H331.007V221.36Z" fill="white"/>
<path d="M296 253.257L265.188 253.114L265.162 258.891L295.975 259.034L296 253.257Z" fill="#0E20C5"/>
<path opacity="0.1" d="M296 253.257L265.188 253.114L265.162 258.891L295.975 259.034L296 253.257Z" fill="black"/>
<path d="M385.756 288.729C385.998 288.699 386.238 288.654 386.475 288.595C386.809 288.486 387.117 288.305 387.378 288.064C387.638 287.824 387.845 287.529 387.984 287.199C388.173 286.705 388.247 286.173 388.2 285.645C388.2 285.057 388.2 284.421 388.2 283.711C388.2 282.291 388.2 280.675 388.2 278.815V271.043C388.257 270.48 388.135 269.913 387.852 269.427C387.557 268.928 387.092 268.558 386.547 268.386C385.95 268.278 385.342 268.245 384.738 268.289H367.498L267.645 267.909C267.108 267.91 266.59 268.111 266.186 268.473C265.783 268.836 265.522 269.336 265.453 269.88C265.453 271.043 265.453 272.328 265.453 273.552C265.453 276 265.453 278.448 265.453 280.896C265.453 282.12 265.453 283.344 265.453 284.568C265.408 285.14 265.432 285.715 265.525 286.281C265.674 286.778 265.982 287.209 266.399 287.505C266.842 287.792 267.362 287.929 267.885 287.897H269.55H273.012L299.524 288.032L344.413 288.313L374.674 288.558L382.905 288.656H385.049H385.768H385.049H382.905H374.674H344.413L299.5 288.607L272.988 288.509H267.777C267.129 288.548 266.486 288.372 265.944 288.007C265.399 287.621 265.001 287.055 264.818 286.404C264.71 285.782 264.678 285.149 264.722 284.519C264.722 283.295 264.722 282.071 264.722 280.847C264.722 278.399 264.722 275.951 264.722 273.503C264.722 272.279 264.722 271.055 264.722 269.831C264.809 269.131 265.144 268.488 265.662 268.021C266.18 267.555 266.847 267.297 267.537 267.297L367.391 267.86L384.63 267.995C385.272 267.955 385.916 268 386.547 268.129C387.169 268.337 387.694 268.773 388.02 269.353C388.33 269.893 388.464 270.518 388.404 271.14C388.404 271.716 388.404 272.279 388.404 272.842C388.404 275.057 388.404 277.089 388.404 278.962C388.404 280.835 388.404 282.414 388.404 283.858C388.404 284.556 388.404 285.204 388.404 285.804C388.447 286.351 388.361 286.901 388.152 287.407C387.996 287.745 387.772 288.045 387.492 288.285C387.213 288.526 386.887 288.703 386.535 288.803C386.273 288.825 386.009 288.8 385.756 288.729V288.729Z" fill="#E0E0E0"/>
<path d="M295.768 308.249L264.956 308.106L264.93 313.884L295.742 314.026L295.768 308.249Z" fill="#0E20C5"/>
<path opacity="0.1" d="M295.768 308.249L264.956 308.106L264.93 313.884L295.742 314.026L295.768 308.249Z" fill="black"/>
<path d="M385.516 343.699C385.758 343.67 385.999 343.625 386.235 343.565C386.568 343.456 386.875 343.277 387.135 343.039C387.396 342.8 387.603 342.508 387.745 342.181C387.932 341.687 388.006 341.155 387.96 340.627C387.96 340.027 387.96 339.403 387.96 338.681C387.96 337.273 387.96 335.645 387.96 333.785V326.012C388.017 325.45 387.896 324.883 387.613 324.397C387.31 323.907 386.848 323.543 386.307 323.369C385.711 323.255 385.103 323.218 384.498 323.258H367.259L267.406 322.879C266.868 322.88 266.35 323.081 265.947 323.443C265.544 323.806 265.283 324.305 265.213 324.85C265.213 326.074 265.213 327.298 265.213 328.522C265.213 330.97 265.213 333.418 265.213 335.866C265.213 337.09 265.213 338.314 265.213 339.538C265.169 340.106 265.193 340.677 265.285 341.239C265.429 341.738 265.738 342.171 266.16 342.463C266.599 342.756 267.121 342.894 267.645 342.855H272.856L299.368 343.002L344.257 343.283L374.519 343.528L382.749 343.626H384.893C385.373 343.626 385.612 343.626 385.612 343.626C385.612 343.626 385.373 343.626 384.893 343.626H382.749H374.519H344.257L299.368 343.491L272.856 343.381H267.645C266.997 343.426 266.352 343.249 265.812 342.879C265.267 342.493 264.869 341.927 264.686 341.276C264.579 340.654 264.546 340.021 264.59 339.391C264.59 338.167 264.59 336.943 264.59 335.719C264.59 333.271 264.59 330.823 264.59 328.375C264.59 327.151 264.59 325.927 264.59 324.642C264.675 323.943 265.007 323.3 265.523 322.833C266.039 322.366 266.704 322.108 267.394 322.108L367.247 322.671L384.486 322.806C385.128 322.765 385.772 322.811 386.403 322.94C387.025 323.148 387.55 323.584 387.876 324.164C388.186 324.703 388.321 325.329 388.26 325.951C388.26 326.526 388.26 327.102 388.26 327.653C388.26 329.868 388.26 331.9 388.26 333.773C388.26 335.645 388.26 337.224 388.26 338.669C388.26 339.366 388.26 340.015 388.26 340.615C388.306 341.162 388.219 341.713 388.008 342.218C387.853 342.556 387.628 342.855 387.349 343.096C387.069 343.337 386.743 343.513 386.391 343.614C386.11 343.712 385.81 343.741 385.516 343.699V343.699Z" fill="#E0E0E0"/>
<path d="M329.804 275.592L273.451 275.331L273.427 280.728L329.78 280.99L329.804 275.592Z" fill="#0E20C5"/>
<path opacity="0.2" d="M329.804 275.592L273.451 275.331L273.427 280.728L329.78 280.99L329.804 275.592Z" fill="white"/>
<path d="M278.547 333.711C278.512 334.204 278.336 334.675 278.041 335.066C277.746 335.457 277.345 335.751 276.888 335.911C276.431 336.072 275.938 336.092 275.47 335.969C275.002 335.846 274.58 335.585 274.256 335.219C273.932 334.853 273.72 334.397 273.646 333.91C273.573 333.422 273.642 332.922 273.843 332.474C274.045 332.025 274.371 331.647 274.782 331.386C275.192 331.125 275.668 330.993 276.151 331.006C276.818 331.044 277.444 331.35 277.893 331.856C278.341 332.362 278.576 333.029 278.547 333.711V333.711Z" fill="#0E20C5"/>
<path d="M286.178 333.748C286.202 334.093 286.156 334.439 286.043 334.766C285.929 335.092 285.752 335.39 285.521 335.643C285.29 335.896 285.011 336.098 284.7 336.236C284.39 336.374 284.055 336.445 283.716 336.445C283.378 336.445 283.043 336.374 282.732 336.236C282.422 336.098 282.142 335.896 281.911 335.643C281.681 335.39 281.503 335.092 281.39 334.766C281.277 334.439 281.231 334.093 281.254 333.748C281.231 333.403 281.277 333.057 281.39 332.731C281.503 332.405 281.681 332.106 281.911 331.853C282.142 331.6 282.422 331.398 282.732 331.26C283.043 331.122 283.378 331.051 283.716 331.051C284.055 331.051 284.39 331.122 284.7 331.26C285.011 331.398 285.29 331.6 285.521 331.853C285.752 332.106 285.929 332.405 286.043 332.731C286.156 333.057 286.202 333.403 286.178 333.748V333.748Z" fill="#0E20C5"/>
<path d="M293.821 333.785C293.786 334.277 293.61 334.748 293.315 335.139C293.02 335.53 292.62 335.824 292.163 335.985C291.706 336.145 291.213 336.165 290.745 336.042C290.277 335.919 289.855 335.658 289.53 335.292C289.206 334.926 288.994 334.471 288.921 333.983C288.848 333.495 288.916 332.996 289.118 332.547C289.32 332.099 289.646 331.721 290.056 331.46C290.466 331.199 290.942 331.067 291.425 331.08C292.092 331.121 292.716 331.427 293.164 331.933C293.612 332.438 293.848 333.103 293.821 333.785Z" fill="#0E20C5"/>
<path d="M301.453 333.822C301.417 334.314 301.241 334.785 300.946 335.176C300.652 335.567 300.251 335.861 299.794 336.021C299.337 336.182 298.844 336.202 298.376 336.079C297.908 335.956 297.486 335.695 297.162 335.329C296.837 334.963 296.625 334.508 296.552 334.02C296.479 333.532 296.547 333.033 296.749 332.584C296.951 332.135 297.277 331.757 297.687 331.496C298.098 331.236 298.574 331.103 299.057 331.116C299.723 331.158 300.347 331.464 300.795 331.969C301.243 332.475 301.479 333.14 301.453 333.822Z" fill="#0E20C5"/>
<path d="M309.084 333.846C309.051 334.339 308.877 334.811 308.583 335.204C308.29 335.597 307.889 335.893 307.433 336.055C306.976 336.218 306.482 336.239 306.013 336.117C305.545 335.995 305.121 335.736 304.796 335.37C304.47 335.004 304.257 334.549 304.183 334.06C304.109 333.572 304.177 333.072 304.378 332.623C304.58 332.174 304.906 331.795 305.317 331.534C305.728 331.272 306.204 331.14 306.688 331.153C307.352 331.194 307.974 331.499 308.422 332.002C308.869 332.505 309.107 333.167 309.084 333.846Z" fill="#0E20C5"/>
<path d="M316.727 333.883C316.694 334.373 316.522 334.843 316.231 335.235C315.941 335.627 315.544 335.923 315.09 336.088C314.637 336.252 314.146 336.277 313.679 336.161C313.211 336.044 312.788 335.79 312.459 335.43C312.131 335.071 311.913 334.621 311.832 334.136C311.751 333.651 311.811 333.153 312.003 332.703C312.196 332.252 312.513 331.869 312.916 331.6C313.319 331.331 313.79 331.189 314.271 331.19C314.946 331.215 315.583 331.513 316.044 332.018C316.504 332.523 316.75 333.193 316.727 333.883V333.883Z" fill="#0E20C5"/>
<path d="M324.358 333.919C324.382 334.264 324.336 334.611 324.223 334.937C324.11 335.263 323.932 335.562 323.701 335.815C323.47 336.068 323.191 336.269 322.881 336.407C322.57 336.545 322.235 336.616 321.897 336.616C321.558 336.616 321.223 336.545 320.913 336.407C320.602 336.269 320.323 336.068 320.092 335.815C319.861 335.562 319.683 335.263 319.57 334.937C319.457 334.611 319.411 334.264 319.435 333.919C319.411 333.574 319.457 333.228 319.57 332.902C319.683 332.576 319.861 332.277 320.092 332.024C320.323 331.771 320.602 331.569 320.913 331.432C321.223 331.294 321.558 331.222 321.897 331.222C322.235 331.222 322.57 331.294 322.881 331.432C323.191 331.569 323.47 331.771 323.701 332.024C323.932 332.277 324.11 332.576 324.223 332.902C324.336 333.228 324.382 333.574 324.358 333.919Z" fill="#0E20C5"/>
<path d="M331.99 333.956C331.957 334.447 331.785 334.917 331.494 335.308C331.203 335.7 330.807 335.997 330.353 336.161C329.9 336.325 329.409 336.351 328.941 336.234C328.474 336.117 328.05 335.863 327.722 335.504C327.394 335.144 327.176 334.694 327.095 334.21C327.014 333.725 327.073 333.227 327.266 332.776C327.458 332.325 327.776 331.942 328.179 331.673C328.582 331.405 329.053 331.262 329.534 331.263C330.209 331.289 330.846 331.587 331.306 332.091C331.767 332.596 332.012 333.267 331.99 333.956V333.956Z" fill="#0E20C5"/>
<path d="M339.621 333.993C339.588 334.486 339.414 334.958 339.12 335.351C338.827 335.744 338.427 336.04 337.97 336.202C337.513 336.364 337.019 336.386 336.55 336.264C336.082 336.142 335.658 335.882 335.333 335.517C335.007 335.151 334.794 334.696 334.72 334.207C334.646 333.719 334.714 333.219 334.916 332.77C335.117 332.321 335.444 331.942 335.854 331.68C336.265 331.419 336.741 331.287 337.225 331.3C337.889 331.341 338.511 331.646 338.959 332.149C339.407 332.652 339.644 333.313 339.621 333.993V333.993Z" fill="#0E20C5"/>
<g opacity="0.2">
<path d="M278.547 333.711C278.512 334.204 278.336 334.675 278.041 335.066C277.746 335.457 277.345 335.751 276.888 335.911C276.431 336.072 275.938 336.092 275.47 335.969C275.002 335.846 274.58 335.585 274.256 335.219C273.932 334.853 273.72 334.397 273.646 333.91C273.573 333.422 273.642 332.922 273.843 332.474C274.045 332.025 274.371 331.647 274.782 331.386C275.192 331.125 275.668 330.993 276.151 331.006C276.818 331.044 277.444 331.35 277.893 331.856C278.341 332.362 278.576 333.029 278.547 333.711V333.711Z" fill="white"/>
<path d="M286.178 333.748C286.202 334.093 286.156 334.439 286.043 334.766C285.929 335.092 285.752 335.39 285.521 335.643C285.29 335.896 285.011 336.098 284.7 336.236C284.39 336.374 284.055 336.445 283.716 336.445C283.378 336.445 283.043 336.374 282.732 336.236C282.422 336.098 282.142 335.896 281.911 335.643C281.681 335.39 281.503 335.092 281.39 334.766C281.277 334.439 281.231 334.093 281.254 333.748C281.231 333.403 281.277 333.057 281.39 332.731C281.503 332.405 281.681 332.106 281.911 331.853C282.142 331.6 282.422 331.398 282.732 331.26C283.043 331.122 283.378 331.051 283.716 331.051C284.055 331.051 284.39 331.122 284.7 331.26C285.011 331.398 285.29 331.6 285.521 331.853C285.752 332.106 285.929 332.405 286.043 332.731C286.156 333.057 286.202 333.403 286.178 333.748V333.748Z" fill="white"/>
<path d="M293.821 333.785C293.786 334.277 293.61 334.748 293.315 335.139C293.02 335.53 292.62 335.824 292.163 335.985C291.706 336.145 291.213 336.165 290.745 336.042C290.277 335.919 289.855 335.658 289.53 335.292C289.206 334.926 288.994 334.471 288.921 333.983C288.848 333.495 288.916 332.996 289.118 332.547C289.32 332.099 289.646 331.721 290.056 331.46C290.466 331.199 290.942 331.067 291.425 331.08C292.092 331.121 292.716 331.427 293.164 331.933C293.612 332.438 293.848 333.103 293.821 333.785Z" fill="white"/>
<path d="M301.453 333.822C301.417 334.314 301.241 334.785 300.946 335.176C300.652 335.567 300.251 335.861 299.794 336.021C299.337 336.182 298.844 336.202 298.376 336.079C297.908 335.956 297.486 335.695 297.162 335.329C296.837 334.963 296.625 334.508 296.552 334.02C296.479 333.532 296.547 333.033 296.749 332.584C296.951 332.135 297.277 331.757 297.687 331.496C298.098 331.236 298.574 331.103 299.057 331.116C299.723 331.158 300.347 331.464 300.795 331.969C301.243 332.475 301.479 333.14 301.453 333.822Z" fill="white"/>
<path d="M309.084 333.846C309.051 334.339 308.877 334.811 308.583 335.204C308.29 335.597 307.889 335.893 307.433 336.055C306.976 336.218 306.482 336.239 306.013 336.117C305.545 335.995 305.121 335.736 304.796 335.37C304.47 335.004 304.257 334.549 304.183 334.06C304.109 333.572 304.177 333.072 304.378 332.623C304.58 332.174 304.906 331.795 305.317 331.534C305.728 331.272 306.204 331.14 306.688 331.153C307.352 331.194 307.974 331.499 308.422 332.002C308.869 332.505 309.107 333.167 309.084 333.846Z" fill="white"/>
<path d="M316.727 333.883C316.694 334.373 316.522 334.843 316.231 335.235C315.941 335.627 315.544 335.923 315.09 336.088C314.637 336.252 314.146 336.277 313.679 336.161C313.211 336.044 312.788 335.79 312.459 335.43C312.131 335.071 311.913 334.621 311.832 334.136C311.751 333.651 311.811 333.153 312.003 332.703C312.196 332.252 312.513 331.869 312.916 331.6C313.319 331.331 313.79 331.189 314.271 331.19C314.946 331.215 315.583 331.513 316.044 332.018C316.504 332.523 316.75 333.193 316.727 333.883V333.883Z" fill="white"/>
<path d="M324.358 333.919C324.382 334.265 324.336 334.611 324.223 334.937C324.11 335.263 323.932 335.562 323.701 335.815C323.47 336.068 323.191 336.269 322.881 336.407C322.57 336.545 322.235 336.616 321.897 336.616C321.558 336.616 321.223 336.545 320.913 336.407C320.602 336.269 320.323 336.068 320.092 335.815C319.861 335.562 319.683 335.263 319.57 334.937C319.457 334.611 319.411 334.265 319.435 333.919C319.411 333.574 319.457 333.228 319.57 332.902C319.683 332.576 319.861 332.277 320.092 332.024C320.323 331.771 320.602 331.57 320.913 331.432C321.223 331.294 321.558 331.222 321.897 331.222C322.235 331.222 322.57 331.294 322.881 331.432C323.191 331.57 323.47 331.771 323.701 332.024C323.932 332.277 324.11 332.576 324.223 332.902C324.336 333.228 324.382 333.574 324.358 333.919Z" fill="white"/>
<path d="M331.99 333.956C331.957 334.447 331.785 334.917 331.494 335.309C331.203 335.7 330.807 335.997 330.353 336.161C329.9 336.326 329.409 336.351 328.941 336.234C328.474 336.117 328.05 335.863 327.722 335.504C327.394 335.144 327.176 334.694 327.095 334.21C327.014 333.725 327.073 333.227 327.266 332.776C327.458 332.325 327.776 331.942 328.179 331.673C328.582 331.405 329.053 331.262 329.534 331.263C330.209 331.289 330.846 331.587 331.306 332.091C331.767 332.596 332.012 333.267 331.99 333.956V333.956Z" fill="white"/>
<path d="M339.621 333.993C339.588 334.486 339.414 334.958 339.12 335.351C338.827 335.744 338.427 336.04 337.97 336.202C337.513 336.364 337.019 336.386 336.55 336.264C336.082 336.142 335.658 335.882 335.333 335.517C335.007 335.151 334.794 334.696 334.72 334.207C334.646 333.719 334.714 333.219 334.916 332.77C335.117 332.321 335.444 331.942 335.854 331.68C336.265 331.419 336.741 331.287 337.225 331.3C337.889 331.341 338.511 331.646 338.959 332.149C339.407 332.652 339.644 333.313 339.621 333.993V333.993Z" fill="white"/>
</g>
<path d="M328.779 157.296C329.611 156.922 330.317 156.306 330.809 155.524C331.301 154.743 331.558 153.831 331.546 152.902C331.577 152.298 331.488 151.694 331.283 151.127C331.078 150.559 330.762 150.041 330.355 149.602C329.948 149.163 329.457 148.814 328.913 148.575C328.369 148.336 327.784 148.213 327.192 148.213C326.6 148.213 326.014 148.336 325.47 148.575C324.926 148.814 324.436 149.163 324.028 149.602C323.621 150.041 323.305 150.559 323.1 151.127C322.896 151.694 322.806 152.298 322.837 152.902C322.819 153.84 323.073 154.763 323.568 155.554C324.062 156.345 324.775 156.968 325.616 157.345C318.908 158.373 319.207 165.815 319.207 165.815L335.069 165.889C335.069 165.889 335.44 158.312 328.779 157.296Z" fill="#0E20C5"/>
<path opacity="0.1" d="M328.779 157.296C329.611 156.922 330.317 156.306 330.809 155.524C331.301 154.743 331.558 153.831 331.546 152.902C331.577 152.298 331.488 151.694 331.283 151.127C331.078 150.559 330.762 150.041 330.355 149.602C329.948 149.163 329.457 148.814 328.913 148.575C328.369 148.336 327.784 148.213 327.192 148.213C326.6 148.213 326.014 148.336 325.47 148.575C324.926 148.814 324.436 149.163 324.028 149.602C323.621 150.041 323.305 150.559 323.1 151.127C322.896 151.694 322.806 152.298 322.837 152.902C322.819 153.84 323.073 154.763 323.568 155.554C324.062 156.345 324.775 156.968 325.616 157.345C318.908 158.373 319.207 165.815 319.207 165.815L335.069 165.889C335.069 165.889 335.44 158.312 328.779 157.296Z" fill="black"/>
<path d="M354.553 170.689L298.02 170.426L297.99 177.33L354.523 177.592L354.553 170.689Z" fill="#0E20C5"/>
<path opacity="0.2" d="M354.553 170.689L298.02 170.426L297.99 177.33L354.523 177.592L354.553 170.689Z" fill="white"/>
<path d="M146.719 206.464H146.156L144.527 206.587C143.645 206.641 142.768 206.759 141.903 206.942C141.343 207.022 140.787 207.132 140.238 207.272L138.381 207.798C135.22 208.789 132.239 210.298 129.552 212.266C126.002 214.899 123.038 218.269 120.854 222.156C119.571 224.397 118.55 226.783 117.811 229.267C117.036 231.967 116.589 234.755 116.482 237.566C116.41 239.043 116.434 240.523 116.553 241.997C116.553 242.744 116.757 243.49 116.853 244.249C116.934 245.014 117.074 245.771 117.272 246.514C118.349 251.425 120.535 256.012 123.655 259.907C126.775 263.802 130.743 266.899 135.242 268.95C138.499 270.385 141.989 271.186 145.533 271.312C149.194 271.518 152.858 270.981 156.315 269.733L157.369 269.329H157.513L157.633 269.402L172.74 277.236L172.296 277.628C170.679 272.511 169.122 267.554 167.612 262.793V262.609L167.744 262.475C171.409 258.703 174.129 254.085 175.675 249.011C177.075 244.372 177.483 239.48 176.873 234.665C176.33 230.387 174.983 226.256 172.907 222.499C171.118 219.271 168.809 216.375 166.079 213.931C163.826 211.996 161.332 210.374 158.663 209.108C156.643 208.218 154.54 207.541 152.386 207.089L149.99 206.685L148.253 206.55L147.198 206.477H146.839C146.958 206.463 147.079 206.463 147.198 206.477H148.264L150.002 206.55L152.398 206.905C154.579 207.325 156.711 207.977 158.759 208.851C161.474 210.102 164.013 211.72 166.306 213.661C169.087 216.095 171.445 218.992 173.279 222.229C175.414 226.027 176.801 230.214 177.364 234.555C178.025 239.444 177.645 244.421 176.25 249.145C174.694 254.325 171.932 259.042 168.199 262.891L168.271 262.572C169.781 267.334 171.35 272.291 172.979 277.395L173.207 278.142L172.524 277.787L157.417 269.965H157.681L156.603 270.369C153.079 271.636 149.347 272.185 145.617 271.985C141.996 271.844 138.433 271.014 135.11 269.537C128.773 266.764 123.5 261.944 120.1 255.816C118.535 252.986 117.392 249.933 116.709 246.758C116.522 245.997 116.382 245.224 116.29 244.445C116.194 243.674 116.038 242.915 116.002 242.156C115.678 237.801 116.129 233.422 117.332 229.231C118.089 226.712 119.139 224.296 120.459 222.034C122.695 218.111 125.72 214.719 129.336 212.082C132.067 210.109 135.099 208.612 138.309 207.652L140.19 207.162C140.744 207.031 141.303 206.929 141.867 206.856C142.741 206.691 143.626 206.592 144.515 206.562L146.156 206.501C146.343 206.475 146.531 206.463 146.719 206.464Z" fill="#0E20C5"/>
<path d="M153.548 235.008H151.331L146.539 228.129V223.613C146.539 223.613 143.113 223.392 143.52 229.304C143.928 235.216 143.52 233.711 143.52 233.711C143.52 233.711 136.249 233.711 135.65 234.384C135.051 235.057 135.015 242.23 134.931 246.232C134.885 247.197 135.156 248.15 135.701 248.939C136.245 249.729 137.033 250.31 137.938 250.59C138.191 250.661 138.453 250.698 138.716 250.7C140.537 250.7 149.798 249.194 149.798 249.194H153.62L153.548 235.008Z" fill="#0E20C5"/>
<path d="M159.885 233.796L158.519 249.268H154.734V234.114L159.885 233.796Z" fill="#0E20C5"/>
<path d="M205.038 548.768V538.303L186.672 538.168L186.517 553.995L187.655 554.08C192.722 554.411 213.436 554.9 216.838 553.823C220.624 552.624 205.038 548.768 205.038 548.768Z" fill="#455A64"/>
<path d="M217.269 552.844C217.269 553.015 210.393 553.162 201.923 553.162C193.453 553.162 186.576 553.015 186.576 552.844C186.576 552.673 193.453 552.526 201.923 552.526C210.393 552.526 217.269 552.673 217.269 552.844Z" fill="#263238"/>
<path d="M205.361 550.91C205.205 550.824 205.361 550.274 205.733 549.686C206.104 549.099 206.607 548.854 206.727 548.976C206.847 549.099 206.595 549.564 206.236 550.066C205.876 550.567 205.517 550.996 205.361 550.91Z" fill="#263238"/>
<path d="M206.535 551.596C206.367 551.596 206.451 550.91 206.811 550.261C207.17 549.613 207.649 549.221 207.781 549.319C207.913 549.417 207.697 549.968 207.362 550.543C207.026 551.118 206.691 551.657 206.535 551.596Z" fill="#263238"/>
<path d="M192.111 552.795C192.039 552.795 191.764 552.575 191.368 552.11C190.886 551.512 190.348 550.963 189.763 550.47C189.188 550 188.502 549.692 187.774 549.576C187.211 549.503 186.852 549.576 186.816 549.503C186.78 549.429 187.127 549.172 187.786 549.123C188.656 549.104 189.504 549.399 190.182 549.955C190.818 550.485 191.354 551.127 191.764 551.853C192.039 552.391 192.183 552.746 192.111 552.795Z" fill="#263238"/>
<path d="M205.421 548.94C205.505 549.086 205.193 549.454 204.666 549.649C204.139 549.845 203.672 549.772 203.648 549.649C203.624 549.527 203.995 549.27 204.451 549.099C204.906 548.927 205.325 548.793 205.421 548.94Z" fill="#263238"/>
<path d="M205.133 547.924C205.133 548.107 204.654 548.254 204.031 548.266C203.408 548.279 202.917 548.132 202.929 547.96C202.941 547.789 203.432 547.63 204.031 547.618C204.63 547.605 205.11 547.752 205.133 547.924Z" fill="#263238"/>
<path d="M250.262 548.768V538.303L231.897 538.168L231.741 553.836L232.879 553.921C237.947 554.252 258.672 554.9 262.062 553.823C265.848 552.624 250.262 548.768 250.262 548.768Z" fill="#455A64"/>
<path d="M262.494 552.869C262.494 553.04 255.629 553.187 247.147 553.187C238.666 553.187 231.813 553.04 231.813 552.869C231.813 552.697 238.678 552.55 247.147 552.55C255.617 552.55 262.494 552.697 262.494 552.869Z" fill="#263238"/>
<path d="M250.586 550.91C250.442 550.824 250.586 550.274 250.957 549.686C251.328 549.099 251.832 548.854 251.951 548.976C252.071 549.099 251.82 549.564 251.46 550.066C251.101 550.567 250.741 550.996 250.586 550.91Z" fill="#263238"/>
<path d="M251.76 551.596C251.604 551.596 251.676 550.91 252.047 550.261C252.419 549.613 252.886 549.221 253.018 549.319C253.149 549.417 252.922 549.968 252.586 550.543C252.251 551.118 251.927 551.657 251.76 551.596Z" fill="#263238"/>
<path d="M237.336 552.795C237.264 552.795 237 552.575 236.593 552.11C236.11 551.512 235.573 550.963 234.988 550.47C234.412 550 233.727 549.692 232.999 549.576C232.448 549.503 232.077 549.576 232.041 549.503C232.005 549.429 232.352 549.172 233.011 549.123C233.881 549.104 234.729 549.399 235.407 549.955C236.046 550.481 236.582 551.125 236.988 551.853C237.264 552.391 237.408 552.746 237.336 552.795Z" fill="#263238"/>
<path d="M250.645 548.94C250.729 549.086 250.418 549.454 249.891 549.649C249.364 549.845 248.896 549.772 248.872 549.649C248.848 549.527 249.22 549.27 249.675 549.099C250.13 548.927 250.55 548.793 250.645 548.94Z" fill="#263238"/>
<path d="M250.382 547.924C250.382 548.107 249.903 548.254 249.28 548.266C248.657 548.279 248.178 548.132 248.19 547.96C248.202 547.789 248.681 547.63 249.28 547.618C249.879 547.605 250.382 547.752 250.382 547.924Z" fill="#263238"/>
<path d="M317.925 237.995C317.446 237.493 316.26 237.738 316.26 237.738C316.379 237.033 316.379 236.312 316.26 235.608C316.044 234.922 314.535 235.057 314.535 235.057C314.465 234.48 314.465 233.896 314.535 233.319C314.547 233.191 314.52 233.062 314.458 232.951C314.396 232.839 314.301 232.75 314.187 232.695C313.473 232.397 312.706 232.255 311.935 232.278C311.013 231.605 314.75 226.256 316.14 224.543C317.53 222.829 317.278 221.495 316.044 221.495C315.194 221.495 310.833 226.636 309.491 228.362C308.149 230.088 304.591 234.886 304.472 231.054C304.352 227.223 302.842 224.335 301.896 223.845C300.95 223.356 299.943 224.506 300.458 225.571C300.911 226.781 301.193 228.05 301.297 229.341C301.427 230.369 301.382 231.413 301.165 232.425C300.768 234.31 300.227 236.16 299.548 237.958H299.452C299.452 237.958 273.312 263.576 271.419 265.4C269.73 267.04 235.754 263.454 228.938 262.719C226.621 262.373 224.282 262.209 221.941 262.23C218.982 262.364 218.455 262.793 215.508 262.83C208.066 262.914 200.64 263.581 193.297 264.825C189.972 265.402 186.867 266.902 184.319 269.159C181.771 271.417 179.879 274.346 178.849 277.628C171.985 299.537 156.435 351.398 153.691 380.529C151.618 384.37 149.747 388.321 148.085 392.365C146.156 397.727 146.623 397.91 147.27 398.033C149.019 398.363 151.008 388.742 151.751 391.068C152.493 393.394 147.977 402.537 149.81 402.806C152.206 403.149 154.111 393.014 154.338 392.206C154.566 391.398 155.752 391.656 155.536 392.414C155.189 393.492 151.822 404.911 154.171 405.279C155.464 405.474 155.608 403.063 155.608 403.063C155.608 403.063 158.004 392.133 159.094 392.353C160.185 392.574 159.022 399.024 158.471 401.178C157.92 403.332 158.687 404.422 159.813 403.896C160.58 403.528 162.413 396.98 162.916 394.85C163.419 392.72 164.677 386.821 166.366 390.236C168.055 393.651 170.619 395.634 171.673 395.682C171.911 395.654 172.135 395.555 172.316 395.395C172.498 395.236 172.628 395.025 172.692 394.79C172.755 394.554 172.747 394.304 172.671 394.073C172.594 393.842 172.451 393.639 172.26 393.492C171.354 392.587 170.575 391.557 169.948 390.432C169.389 389.555 168.984 388.586 168.75 387.567C168.267 385.537 167.987 383.462 167.912 381.374L167.72 380.15C170.403 366.576 178.131 326.735 189.284 301.288L193.86 310.908L195.849 318.032L183.653 348.791L235.671 348.093L227.907 317.567L237.336 285.743C247.531 285.975 273.707 286.367 278.068 284.347C283.555 281.899 311.935 245.277 311.935 245.277C313.785 243.809 315.557 242.24 317.242 240.577C317.242 240.577 318.967 239.096 317.925 237.995Z" fill="#FFBE9D"/>
<path d="M181.365 326.061C182.875 320.798 190.626 294.776 190.626 294.776C190.626 294.776 194.435 315.988 193.429 318.546C192.503 320.736 191.41 322.848 190.158 324.862C181.365 338.534 182.515 345.376 182.515 345.376L235.647 343.724C235.766 336.135 231.37 318.485 230.459 315.67C229.549 312.854 232.58 303.638 232.58 303.638C232.58 303.638 238.57 297.408 238.354 294.201C238.24 291.32 237.892 288.454 237.312 285.633L269.658 286.857L268.639 264.457L222.181 259.708C220.564 264.372 205.936 262.083 205.936 262.083C190.147 262.621 189.164 265.584 182.599 270.798C176.034 276.012 165.168 320.761 165.168 320.761L181.365 326.061Z" fill="#455A64"/>
<path d="M212.777 320.761C211.856 320.93 210.918 320.979 209.985 320.908C208.248 320.908 205.864 320.786 203.241 320.517C200.617 320.247 198.245 319.868 196.556 319.525C195.624 319.403 194.711 319.164 193.836 318.815C194.773 318.816 195.707 318.906 196.628 319.085C198.329 319.305 200.689 319.611 203.3 319.88C205.912 320.149 208.284 320.333 209.997 320.455C210.931 320.468 211.862 320.57 212.777 320.761V320.761Z" fill="#263238"/>
<path d="M216.419 316.147C215.498 316.608 214.524 316.949 213.52 317.163C208.74 318.446 203.809 319.043 198.868 318.938C197.846 318.972 196.823 318.873 195.825 318.644C196.834 318.514 197.851 318.461 198.868 318.485C200.749 318.424 203.337 318.289 206.188 317.946C209.039 317.604 211.579 317.114 213.376 316.722C214.374 316.45 215.391 316.258 216.419 316.147V316.147Z" fill="#263238"/>
<path d="M234.293 295.559C234.269 296.493 234.144 297.42 233.921 298.326C233.61 300.027 233.131 302.353 232.52 304.898C231.909 307.444 231.322 309.794 230.795 311.386C230.583 312.296 230.269 313.179 229.86 314.017C229.927 313.087 230.096 312.167 230.363 311.275C230.819 309.366 231.334 307.163 231.909 304.752C232.484 302.34 233.035 300.137 233.49 298.228C233.652 297.309 233.922 296.413 234.293 295.559V295.559Z" fill="#263238"/>
<path d="M181.928 322.94C179.157 322.503 176.421 321.852 173.746 320.994C171.012 320.341 168.329 319.482 165.719 318.424C168.489 318.868 171.224 319.518 173.902 320.37C176.636 321.021 179.319 321.88 181.928 322.94V322.94Z" fill="#263238"/>
<path d="M237.887 285.363C237.435 285.443 236.973 285.443 236.521 285.363C235.27 285.232 234.041 284.932 232.867 284.47C230.907 283.717 229.123 282.555 227.63 281.056C226.136 279.557 224.965 277.756 224.194 275.767C223.341 273.58 222.976 271.226 223.127 268.876C223.181 266.938 223.748 265.051 224.769 263.417C225.487 262.316 226.559 261.506 227.8 261.128C228.131 261.035 228.474 260.989 228.818 260.994C229.058 260.994 229.177 260.994 229.177 260.994C229.177 260.994 228.674 260.994 227.872 261.324C226.733 261.754 225.768 262.559 225.128 263.613C223.499 266.232 223.044 271.018 224.781 275.486C225.589 277.592 226.855 279.484 228.483 281.018C229.816 282.274 231.352 283.284 233.023 284.005C234.591 284.638 236.222 285.093 237.887 285.363V285.363Z" fill="#263238"/>
<path d="M265.812 286.416C265.513 282.663 265.417 278.895 265.525 275.131C265.431 271.37 265.543 267.606 265.86 263.858C266.16 267.607 266.256 271.371 266.148 275.131C266.248 278.896 266.136 282.664 265.812 286.416V286.416Z" fill="#263238"/>
<path d="M221.87 261.079C222.001 258.35 222.277 255.265 222.277 255.265C222.277 255.265 228.89 254.519 229.285 247.542C229.68 240.565 229.285 224.469 229.285 224.469L217.305 218.203L204.007 228.888L206.056 263.772L218.252 264.568C219.184 264.594 220.088 264.242 220.766 263.588C221.445 262.934 221.841 262.032 221.87 261.079V261.079Z" fill="#FFBE9D"/>
<path d="M223.056 242.022C223.056 242.022 223.056 242.156 222.948 242.315C222.859 242.431 222.743 242.522 222.612 242.582C222.48 242.642 222.337 242.668 222.193 242.658C221.426 242.658 220.684 241.752 220.42 240.7C220.295 240.189 220.295 239.655 220.42 239.145C220.445 238.922 220.523 238.709 220.649 238.526C220.774 238.342 220.943 238.193 221.139 238.093C221.3 238.025 221.481 238.025 221.642 238.093C221.761 238.153 221.858 238.252 221.918 238.374C222.001 238.582 221.918 238.717 221.918 238.705C221.918 238.692 221.917 238.582 221.798 238.46C221.735 238.372 221.643 238.311 221.539 238.288C221.435 238.266 221.327 238.283 221.235 238.337C221.088 238.428 220.966 238.555 220.88 238.707C220.794 238.859 220.747 239.031 220.743 239.206C220.643 239.662 220.643 240.134 220.743 240.589C220.983 241.544 221.63 242.315 222.205 242.389C222.318 242.404 222.432 242.396 222.541 242.364C222.65 242.333 222.752 242.279 222.84 242.205C222.984 242.107 223.032 242.009 223.056 242.022Z" fill="#EB996E"/>
<path d="M233.394 220.699C232.472 217.493 229.129 215.901 226.086 215.02C221.45 213.674 216.443 213.086 211.914 214.788C207.386 216.489 201.947 219.475 201.947 224.58C199.275 224.359 197.742 226.746 196.688 229.708C196.014 231.513 195.61 233.411 195.49 235.339V235.339C195.154 242.022 193.321 251.251 189.08 256.147C186.684 258.876 183.366 260.761 182 264.164C180.802 267.114 181.425 270.614 180.311 273.601C179.317 276.232 177.124 278.105 175.519 280.394C173.883 282.991 172.921 285.969 172.722 289.05C172.523 292.131 173.094 295.214 174.381 298.007C175.677 300.729 177.503 303.153 179.745 305.131C181.988 307.109 184.602 308.6 187.427 309.513C193.023 311.252 198.99 311.312 204.618 309.684C208.842 308.652 212.782 306.656 216.143 303.846C219.582 300.977 221.944 296.981 222.828 292.536C223.679 287.542 222.313 282.463 221.294 277.493C218.108 261.789 219.018 260.969 223.044 246.391C223.139 246.134 223.187 245.865 223.259 245.608C223.331 245.351 223.367 245.228 223.415 245.033C223.529 244.456 223.589 243.87 223.595 243.282C223.007 243.506 222.369 243.553 221.755 243.418C221.142 243.284 220.579 242.974 220.132 242.523C219.685 242.043 219.373 241.449 219.229 240.802C219.086 240.156 219.117 239.482 219.318 238.851C219.6 238.162 220.022 237.541 220.554 237.029C221.086 236.516 221.718 236.124 222.409 235.877C223.738 235.314 225.164 235.02 226.47 234.396C229.237 233.05 231.154 230.259 232.46 227.334C233.533 225.306 233.865 222.954 233.394 220.699V220.699Z" fill="#263238"/>
<path d="M223.535 242.352C223.788 242.734 223.997 243.145 224.158 243.576C224.517 244.347 224.996 245.436 225.523 246.697L225.619 246.93H225.368L224.17 247.04C223.343 247.04 222.648 247.199 221.834 247.187C221.763 247.17 221.697 247.136 221.642 247.087C221.588 247.038 221.547 246.975 221.522 246.905C221.486 246.794 221.486 246.674 221.522 246.563C221.55 246.398 221.586 246.234 221.63 246.073L221.846 245.204C221.954 244.624 222.123 244.058 222.349 243.515C222.326 244.106 222.242 244.693 222.097 245.265L221.929 246.134C221.87 246.428 221.762 246.881 221.929 246.844C222.528 246.844 223.379 246.709 224.17 246.66L225.368 246.55L225.212 246.82C224.697 245.596 224.266 244.445 224.014 243.649C223.793 243.243 223.632 242.806 223.535 242.352V242.352Z" fill="#455A64"/>
<path d="M182.515 345.376L235.647 343.724L258.768 435.94L254.515 541.718H226.422L229.86 438.192L209.315 373.993L212.477 545.818L184.085 546.247L181.102 384.74C180.97 380.248 179.532 370.125 180.071 365.67L182.515 345.376Z" fill="#263238"/>
<path d="M216.383 375.303C215.513 375.359 214.64 375.305 213.783 375.144C212.178 374.948 209.985 374.605 207.577 374.116C205.169 373.626 203.013 373.063 201.456 372.61C200.623 372.423 199.818 372.127 199.06 371.729C199.06 371.545 202.965 372.5 207.757 373.491C212.549 374.483 216.407 375.119 216.383 375.303Z" fill="#455A64"/>
<path d="M254.228 535.916C254.228 536.088 247.866 536.234 240.019 536.234C232.172 536.234 225.799 536.088 225.799 535.916C225.799 535.745 232.16 535.598 240.019 535.598C247.878 535.598 254.228 535.733 254.228 535.916Z" fill="#455A64"/>
<path d="M212.226 541.351C212.226 541.534 206.044 541.669 198.425 541.669C190.805 541.669 184.636 541.534 184.636 541.351C184.636 541.167 190.817 541.032 198.425 541.032C206.032 541.032 212.226 541.179 212.226 541.351Z" fill="#455A64"/>
<path d="M208.56 540.91C208.392 540.91 207.649 503.37 206.895 457.066C206.14 410.762 205.697 373.198 205.852 373.198C206.008 373.198 206.775 410.725 207.518 457.054C208.26 503.382 208.739 540.91 208.56 540.91Z" fill="#455A64"/>
<path d="M250.454 535.916C250.441 535.749 250.441 535.581 250.454 535.414V533.946C250.454 532.624 250.55 530.726 250.622 528.315C250.789 523.419 251.029 516.308 251.328 507.593C251.975 490.065 252.886 465.903 253.88 439.232C253.88 438.975 253.88 438.731 253.88 438.51V438.596C247.591 412.892 241.9 389.562 237.767 372.684L232.975 352.72C232.424 350.382 232.005 348.558 231.705 347.286C231.561 346.686 231.466 346.221 231.382 345.866C231.335 345.706 231.307 345.542 231.298 345.376C231.36 345.53 231.408 345.69 231.442 345.853C231.537 346.196 231.657 346.661 231.825 347.249C232.148 348.473 232.616 350.333 233.215 352.659C234.413 357.384 236.102 364.189 238.21 372.573C242.379 389.44 248.13 412.708 254.503 438.449V438.535C254.503 438.755 254.503 439.012 254.503 439.257C253.437 465.928 252.466 490.077 251.76 507.605C251.388 516.332 251.077 523.395 250.861 528.315C250.741 530.763 250.646 532.624 250.586 533.946C250.586 534.57 250.514 535.059 250.502 535.414C250.504 535.583 250.487 535.751 250.454 535.916V535.916Z" fill="#455A64"/>
<path d="M241.289 436.356C239.271 437.034 237.192 437.505 235.083 437.764C232.496 438.216 230.291 438.535 229.297 438.584V438.339C229.621 438.437 229.788 438.498 229.788 438.547C229.788 438.596 229.585 438.547 229.249 438.547H228.53L229.249 438.327C230.184 438.045 232.388 437.58 234.976 437.103C237.051 436.643 239.166 436.393 241.289 436.356Z" fill="#455A64"/>
<path d="M240.798 439.869C238.929 439.956 237.057 439.87 235.203 439.612C233.332 439.573 231.468 439.364 229.633 438.988C233.377 438.675 237.145 438.973 240.798 439.869V439.869Z" fill="#455A64"/>
<path opacity="0.2" d="M182.288 347.322C182.917 348.148 183.709 348.828 184.614 349.32C185.518 349.811 186.513 350.102 187.535 350.174C189.675 350.433 191.839 350.392 193.968 350.052C207.685 348.497 222.217 347.065 235.647 343.724C218.264 344.715 199.898 344.385 182.515 345.376L182.336 346.894" fill="black"/>
<g opacity="0.2">
<path d="M200.198 372.353L209.997 411.203L209.315 373.993L200.198 372.353Z" fill="black"/>
</g>
</svg>
