<svg width="149" height="29" viewBox="0 0 149 29" fill="none" xmlns="http://www.w3.org/2000/svg">
<g clip-path="url(#clip0_6_57)">
<path d="M10.1382 23.968C7.28472 26.9542 2.45206 26.9423 1.10242 22.9624C0.838183 22.1832 0.626915 21.382 0.471527 20.5645C-0.162917 17.2265 0.162703 13.7667 1.40721 10.6224C2.65172 7.4782 4.75922 4.79076 7.4632 2.89998C10.1672 1.0092 13.3463 -1.45785e-07 16.5983 0C19.8503 1.45785e-07 23.0294 1.0092 25.7333 2.89998C28.4373 4.79076 30.5448 7.4782 31.7893 10.6225C33.0339 13.7667 33.3594 17.2265 32.725 20.5645C32.5696 21.382 32.3584 22.1832 32.0941 22.9624C30.7444 26.9423 25.9118 26.9542 23.0583 23.968L18.6536 19.3584C18.2328 18.918 18.2763 18.1917 18.3924 17.5809C18.4629 17.2096 18.4267 16.8247 18.2882 16.4749C18.1497 16.1251 17.9153 15.8261 17.6145 15.6158C17.3137 15.4055 16.9601 15.2932 16.5983 15.2932C16.2365 15.2932 15.8829 15.4055 15.5821 15.6158C15.2812 15.8261 15.0468 16.1251 14.9083 16.4749C14.7698 16.8247 14.7336 17.2096 14.8042 17.5809C14.9203 18.1917 14.9637 18.918 14.5429 19.3584L10.1382 23.968Z" fill="#0E20C5"/>
<path d="M46.4183 19.8367H50.838V22.5624H43.0443V8.06683H46.4183V19.8367Z" fill="white"/>
<path d="M56.8672 22.7276C55.7886 22.7276 54.8152 22.4867 53.947 22.0049C53.092 21.5231 52.4145 20.8348 51.9147 19.94C51.428 19.0452 51.1846 17.999 51.1846 16.8013C51.1846 15.6175 51.4345 14.5781 51.9344 13.6833C52.4343 12.7748 53.1183 12.0796 53.9864 11.5978C54.8546 11.116 55.8281 10.8751 56.9067 10.8751C57.9853 10.8751 58.9587 11.116 59.8269 11.5978C60.6951 12.0796 61.3791 12.7748 61.8789 13.6833C62.3788 14.5781 62.6287 15.6175 62.6287 16.8013C62.6287 17.9852 62.3722 19.0314 61.8592 19.94C61.3594 20.8348 60.6688 21.5231 59.7874 22.0049C58.9193 22.4867 57.9459 22.7276 56.8672 22.7276ZM56.8672 19.6715C57.5117 19.6715 58.0577 19.4238 58.505 18.9282C58.9653 18.4326 59.1955 17.7237 59.1955 16.8013C59.1955 15.879 58.9718 15.1701 58.5246 14.6745C58.0905 14.1789 57.5512 13.9311 56.9067 13.9311C56.249 13.9311 55.7031 14.1789 55.269 14.6745C54.8349 15.1563 54.6178 15.8652 54.6178 16.8013C54.6178 17.7237 54.8284 18.4326 55.2493 18.9282C55.6834 19.4238 56.2227 19.6715 56.8672 19.6715Z" fill="white"/>
<path d="M68.0098 10.8751C68.7859 10.8751 69.4634 11.0403 70.0422 11.3707C70.634 11.701 71.0879 12.1347 71.4036 12.6715V11.0403H74.7776V22.5417C74.7776 23.6017 74.5738 24.5585 74.1659 25.4119C73.7713 26.2792 73.1597 26.9675 72.331 27.4768C71.5154 27.9862 70.4959 28.2409 69.2726 28.2409C67.6415 28.2409 66.3195 27.8348 65.3066 27.0226C64.2938 26.2241 63.7149 25.1366 63.5703 23.76H66.9049C67.0101 24.2005 67.2601 24.5447 67.6547 24.7925C68.0492 25.054 68.536 25.1848 69.1148 25.1848C69.812 25.1848 70.3644 24.9714 70.7722 24.5447C71.1931 24.1317 71.4036 23.4641 71.4036 22.5417V20.9105C71.0747 21.4473 70.6209 21.8879 70.0422 22.232C69.4634 22.5624 68.7859 22.7276 68.0098 22.7276C67.1022 22.7276 66.28 22.4867 65.5434 22.0049C64.8068 21.5093 64.2214 20.8141 63.7874 19.9193C63.3665 19.0108 63.1559 17.9646 63.1559 16.7807C63.1559 15.5968 63.3665 14.5575 63.7874 13.6627C64.2214 12.7679 64.8068 12.0796 65.5434 11.5978C66.28 11.116 67.1022 10.8751 68.0098 10.8751ZM71.4036 16.8013C71.4036 15.9203 71.1668 15.2251 70.6933 14.7158C70.2329 14.2065 69.6672 13.9518 68.9964 13.9518C68.3255 13.9518 67.7533 14.2065 67.2797 14.7158C66.8194 15.2114 66.5892 15.8997 66.5892 16.7807C66.5892 17.6617 66.8194 18.3638 67.2797 18.8869C67.7533 19.3962 68.3255 19.6509 68.9964 19.6509C69.6672 19.6509 70.2329 19.3962 70.6933 18.8869C71.1668 18.3775 71.4036 17.6824 71.4036 16.8013Z" fill="white"/>
<path d="M81.6384 22.7276C80.5598 22.7276 79.5863 22.4867 78.7182 22.0049C77.8632 21.5231 77.1857 20.8348 76.6859 19.94C76.1992 19.0452 75.9558 17.999 75.9558 16.8013C75.9558 15.6175 76.2057 14.5781 76.7056 13.6833C77.2055 12.7748 77.8895 12.0796 78.7576 11.5978C79.6258 11.116 80.5992 10.8751 81.6779 10.8751C82.7565 10.8751 83.7299 11.116 84.5981 11.5978C85.4663 12.0796 86.1503 12.7748 86.6501 13.6833C87.15 14.5781 87.3999 15.6175 87.3999 16.8013C87.3999 17.9852 87.1435 19.0314 86.6304 19.94C86.1306 20.8348 85.44 21.5231 84.5586 22.0049C83.6905 22.4867 82.717 22.7276 81.6384 22.7276ZM81.6384 19.6715C82.2829 19.6715 82.8288 19.4238 83.2761 18.9282C83.7365 18.4326 83.9667 17.7237 83.9667 16.8013C83.9667 15.879 83.743 15.1701 83.2958 14.6745C82.8617 14.1789 82.3224 13.9311 81.6779 13.9311C81.0202 13.9311 80.4743 14.1789 80.0401 14.6745C79.6061 15.1563 79.389 15.8652 79.389 16.8013C79.389 17.7237 79.5995 18.4326 80.0205 18.9282C80.4546 19.4238 80.9939 19.6715 81.6384 19.6715Z" fill="white"/>
<path d="M90.2949 9.84264C89.7029 9.84264 89.2162 9.66368 88.8348 9.30577C88.4664 8.93409 88.2823 8.47981 88.2823 7.94294C88.2823 7.3923 88.4664 6.93802 88.8348 6.5801C89.2162 6.20842 89.7029 6.02258 90.2949 6.02258C90.8737 6.02258 91.3472 6.20842 91.7155 6.5801C92.097 6.93802 92.2877 7.3923 92.2877 7.94294C92.2877 8.47981 92.097 8.93409 91.7155 9.30577C91.3472 9.66368 90.8737 9.84264 90.2949 9.84264ZM91.972 11.0403V22.5624H88.598V11.0403H91.972Z" fill="white"/>
<path d="M97.1989 12.6715C97.5276 12.1347 97.9815 11.701 98.5606 11.3707C99.1397 11.0403 99.8171 10.8751 100.593 10.8751C101.501 10.8751 102.323 11.116 103.059 11.5978C103.796 12.0796 104.375 12.7679 104.796 13.6627C105.229 14.5575 105.447 15.5968 105.447 16.7807C105.447 17.9646 105.229 19.0108 104.796 19.9193C104.375 20.8141 103.796 21.5093 103.059 22.0049C102.323 22.4867 101.501 22.7276 100.593 22.7276C99.8296 22.7276 99.153 22.5624 98.5606 22.232C97.9815 21.9016 97.5276 21.4749 97.1989 20.9518V28.055H93.8251V11.0403H97.1989V12.6715ZM102.014 16.7807C102.014 15.8997 101.777 15.2114 101.303 14.7158C100.842 14.2065 100.271 13.9518 99.5868 13.9518C98.916 13.9518 98.3437 14.2065 97.8697 14.7158C97.4101 15.2251 97.1798 15.9203 97.1798 16.8013C97.1798 17.6824 97.4101 18.3775 97.8697 18.8869C98.3437 19.3962 98.916 19.6509 99.5868 19.6509C100.258 19.6509 100.83 19.3962 101.303 18.8869C101.777 18.3638 102.014 17.6617 102.014 16.7807Z" fill="white"/>
<path d="M111.104 22.7276C110.144 22.7276 109.289 22.5555 108.539 22.2114C107.789 21.8672 107.197 21.3992 106.763 20.8072C106.329 20.2015 106.086 19.527 106.033 18.7836H109.368C109.407 19.1828 109.585 19.5063 109.9 19.7541C110.217 20.0019 110.604 20.1258 111.065 20.1258C111.485 20.1258 111.808 20.0432 112.031 19.878C112.268 19.6991 112.387 19.4719 112.387 19.1966C112.387 18.8662 112.222 18.6253 111.893 18.4739C111.565 18.3087 111.032 18.1298 110.295 17.937C109.506 17.7443 108.848 17.5447 108.322 17.3382C107.796 17.118 107.342 16.7807 106.961 16.3264C106.579 15.8584 106.389 15.232 106.389 14.4474C106.389 13.7866 106.56 13.1878 106.902 12.6509C107.256 12.1003 107.769 11.6666 108.44 11.35C109.124 11.0334 109.934 10.8751 110.867 10.8751C112.248 10.8751 113.334 11.233 114.123 11.9488C114.925 12.6647 115.386 13.6145 115.505 14.7984H112.387C112.334 14.3992 112.163 14.0826 111.873 13.8485C111.597 13.6145 111.229 13.4975 110.769 13.4975C110.374 13.4975 110.071 13.5801 109.861 13.7453C109.651 13.8967 109.546 14.1101 109.546 14.3854C109.546 14.7158 109.71 14.9636 110.039 15.1288C110.381 15.294 110.906 15.4592 111.617 15.6243C112.432 15.8446 113.097 16.0649 113.61 16.2851C114.123 16.4916 114.57 16.8357 114.951 17.3176C115.346 17.7856 115.55 18.4188 115.564 19.2173C115.564 19.8918 115.379 20.4975 115.011 21.0344C114.656 21.5575 114.136 21.9705 113.452 22.2733C112.781 22.5762 111.999 22.7276 111.104 22.7276Z" fill="white"/>
<path d="M127.908 11.0403V22.5624H124.534V20.9931C124.191 21.5024 123.724 21.9154 123.133 22.232C122.554 22.5349 121.91 22.6863 121.199 22.6863C120.357 22.6863 119.613 22.4936 118.969 22.1081C118.324 21.7089 117.825 21.1376 117.47 20.3943C117.115 19.6509 116.937 18.7768 116.937 17.7718V11.0403H120.291V17.2969C120.291 18.0678 120.482 18.6666 120.863 19.0934C121.245 19.5201 121.758 19.7335 122.403 19.7335C123.06 19.7335 123.58 19.5201 123.961 19.0934C124.342 18.6666 124.534 18.0678 124.534 17.2969V11.0403H127.908Z" fill="white"/>
<path d="M143.788 10.9164C145.155 10.9164 146.241 11.35 147.044 12.2173C147.859 13.0845 148.267 14.289 148.267 15.8308V22.5624H144.913V16.3058C144.913 15.5624 144.722 14.9911 144.34 14.5919C143.971 14.1789 143.459 13.9724 142.801 13.9724C142.144 13.9724 141.624 14.1789 141.242 14.5919C140.875 14.9911 140.69 15.5624 140.69 16.3058V22.5624H137.335V16.3058C137.335 15.5624 137.145 14.9911 136.764 14.5919C136.395 14.1789 135.882 13.9724 135.224 13.9724C134.567 13.9724 134.047 14.1789 133.666 14.5919C133.297 14.9911 133.114 15.5624 133.114 16.3058V22.5624H129.739V11.0403H133.114V12.4857C133.456 12.0039 133.903 11.6253 134.455 11.35C135.007 11.0609 135.632 10.9164 136.329 10.9164C137.158 10.9164 137.895 11.1022 138.539 11.4739C139.197 11.8456 139.71 12.3756 140.079 13.0639C140.46 12.4306 140.98 11.9144 141.637 11.5152C142.294 11.116 143.012 10.9164 143.788 10.9164Z" fill="white"/>
</g>
<defs>
<clipPath id="clip0_6_57">
<rect width="148.111" height="29" fill="white" transform="translate(0.155579)"/>
</clipPath>
</defs>
</svg>
